<?xml version="1.0" encoding="utf-8"?>
<!-- Generator: Adobe Illustrator 25.0.1, SVG Export Plug-In . SVG Version: 6.00 Build 0)  -->
<svg version="1.1" id="Layer_1" xmlns="http://www.w3.org/2000/svg" xmlns:xlink="http://www.w3.org/1999/xlink" x="0px" y="0px"
	 viewBox="0 0 27 24" style="enable-background:new 0 0 27 24;" xml:space="preserve">
<style type="text/css">
	.st0{fill-rule:evenodd;clip-rule:evenodd;fill:#2D2D2D;fill-opacity:0.3;}
</style>
<g>
	<path class="st0" d="M25,11.5c-0.2-0.2-0.5-0.6-0.9-1.2c-0.7-0.9-1.5-1.7-2.5-2.5C19,5.4,16.1,4.1,13.1,4C12,3.9,10.5,4,8.6,5
		c-1,0.6-3,1.9-3.9,2.8c-0.9,0.8-1.7,1.7-2.5,2.5c-0.4,0.5-0.7,0.9-0.9,1.2L0.9,12l0.4,0.5c0.2,0.2,0.5,0.6,0.9,1.2
		c0.7,0.9,1.5,1.7,2.5,2.5c2.7,2.4,5.5,3.8,8.5,3.8c2.5,0,5-1,7.2-2.8c0.8-0.7,3.1-2.8,3.7-3.5c0.4-0.5,0.7-0.9,0.9-1.2l0.4-0.5
		L25,11.5z M22.4,12.5c-0.6,0.7-2.8,2.7-3.5,3.3C16.9,17.2,15,18,13.1,18c-2.3,0-4.7-1.2-7-3.2c-0.8-0.7-1.6-1.5-2.2-2.3
		c-0.1-0.2-0.3-0.3-0.4-0.5c0.1-0.2,0.3-0.3,0.4-0.5c0.7-0.8,1.4-1.6,2.2-2.3c1-0.9,3-2.2,4-2.8C11.3,6,12.6,6,13.1,6
		c2.3,0,4.7,1.2,7,3.2c0.8,0.7,1.6,1.5,2.2,2.3c0.1,0.2,0.3,0.3,0.4,0.5C22.6,12.2,22.5,12.3,22.4,12.5z"/>
	<path class="st0" d="M13,8.1c-1,0-1.9,0.3-2.7,0.8l0,0c0,0,0,0,0,0c-0.2,0.2-0.4,0.3-0.6,0.5c0,0-0.1,0.1-0.1,0.1c0,0,0,0,0,0l0,0
		c-0.6,0.7-0.9,1.5-0.9,2.4c0,2.2,2,4,4.4,4c1,0,1.9-0.3,2.6-0.8l0,0c0,0,0,0,0,0c0.1-0.1,0.3-0.2,0.4-0.3c0.1-0.1,0.2-0.2,0.3-0.3
		c0,0,0,0,0,0l0,0c0.6-0.7,0.9-1.5,0.9-2.4C17.4,9.9,15.5,8.1,13,8.1z M10.9,12c0-0.4,0.1-0.7,0.3-1.1c0.1-0.2,0.3-0.3,0.4-0.4
		c0.1-0.1,0.2-0.1,0.3-0.2c0.3-0.2,0.7-0.2,1.1-0.2c1.2,0,2.2,0.9,2.2,2c0,0.5-0.1,0.8-0.4,1.2c-0.1,0.1-0.1,0.1-0.2,0.2
		c-0.1,0.1-0.2,0.2-0.4,0.3c-0.3,0.2-0.7,0.3-1.1,0.3C11.9,14,10.9,13.1,10.9,12z"/>
</g>
</svg>
