<svg width="27" height="24" viewBox="0 0 27 24" fill="none" xmlns="http://www.w3.org/2000/svg">
<path fill-rule="evenodd" clip-rule="evenodd" d="M2.96296 1.29297L1.41506 2.70718L5.86412 6.772C5.44967 7.08582 5.03951 7.42283 4.63387 7.78123C3.72627 8.58312 2.90517 9.43923 2.18235 10.2957C1.74617 10.8125 1.4365 11.2191 1.26694 11.4613L0.889771 12.0001L1.26694 12.5389C1.4365 12.7811 1.74617 13.1876 2.18235 13.7045C2.90517 14.5609 3.72627 15.417 4.63387 16.2189C7.29424 18.5695 10.1489 20.0001 13.1343 20.0001C15.0179 20.0001 16.8494 19.4306 18.613 18.4198L23.3056 22.7072L24.8535 21.293L2.96296 1.29297ZM17.014 16.9589L15.3583 15.4463C14.7065 15.7981 13.9462 16.0001 13.1343 16.0001C10.7163 16.0001 8.75618 14.2092 8.75618 12.0001C8.75618 11.2583 8.97719 10.5636 9.36235 9.96811L7.42055 8.19401C6.99653 8.50642 6.57454 8.8488 6.15562 9.21893C5.33013 9.94828 4.5777 10.7328 3.9159 11.517C3.77297 11.6863 3.64089 11.8479 3.52014 12.0001C3.64089 12.1523 3.77297 12.3138 3.9159 12.4832C4.5777 13.2674 5.33013 14.0519 6.15562 14.7812C8.44696 16.8057 10.8302 18.0001 13.1343 18.0001C14.4129 18.0001 15.7159 17.6323 17.014 16.9589ZM11.0194 11.482C10.971 11.6473 10.9452 11.8209 10.9452 12.0001C10.9452 13.1046 11.9253 14.0001 13.1343 14.0001C13.3304 14.0001 13.5205 13.9765 13.7013 13.9323L11.0194 11.482ZM21.9978 15.891L20.4499 14.4768C21.144 13.8357 21.782 13.1593 22.3527 12.4832C22.4956 12.3138 22.6277 12.1523 22.7484 12.0001C22.6277 11.8479 22.4956 11.6863 22.3527 11.517C21.6909 10.7328 20.9384 9.94828 20.1129 9.21893C17.8216 7.19445 15.4384 6.00008 13.1343 6.00008C12.5626 6.00008 11.9861 6.0736 11.4073 6.21509L9.67574 4.63312C10.8058 4.22145 11.9599 4.00008 13.1343 4.00008C16.1197 4.00008 18.9743 5.4307 21.6347 7.78123C22.5423 8.58312 23.3634 9.43923 24.0862 10.2957C24.5224 10.8125 24.8321 11.2191 25.0016 11.4613L25.3788 12.0001L25.0016 12.5389C24.8321 12.7811 24.5224 13.1876 24.0862 13.7045C23.4611 14.4452 22.7624 15.1857 21.9978 15.891Z" fill="#9A9AB0"/>
</svg>
